<svg xmlns="http://www.w3.org/2000/svg" viewBox="0 0 94 118" width="94" height="118">
	<style>
		tspan { white-space:pre }
		.shp0 { fill: #000000 } 
	</style>
	<g id="layer1">
		<g id="Layer">
			<path id="Layer" fill-rule="evenodd" class="shp0" d="M92.69 0.82C93.57 1.24 93.76 2.14 93.76 5.78C93.76 8.26 93.72 8.82 93.48 10.09C93.06 12.38 92.74 13.53 91.89 15.9C91.46 17.12 90.35 19 89.42 20.1L88.89 20.7L89.25 21.27C89.91 22.29 90.14 23.08 90.13 24.32C90.13 25.84 89.86 26.67 88.78 28.41C87.76 30.02 87.48 31.36 88.04 31.95C88.37 32.31 88.52 33.01 88.49 34.09C88.46 34.94 88.17 35.66 87.66 36.19C87.13 36.72 86.9 37.62 86.96 38.87C86.99 39.75 87.05 40 87.42 40.77C88.53 43.05 88.45 44.98 87.19 46.2C86.58 46.8 86.3 47.69 86.37 48.8C86.44 49.66 86.67 50.12 87.19 50.39C87.61 50.61 87.54 50.71 86.86 50.9C86.12 51.11 85.42 51.79 85.42 52.3C85.42 53.62 84.39 55.73 83.6 56.03C83.41 56.1 83.33 56.27 83.27 56.64C83.17 57.29 82.75 58.1 82.36 58.4C82.2 58.51 81.83 58.64 81.55 58.68L81.02 58.73L81.04 59.57C81.04 60.69 80.67 61.5 79.72 62.41C78.73 63.35 78.58 63.86 79.01 64.72C79.13 64.97 79.24 65.29 79.24 65.43C79.24 66.11 78.53 67.11 77.5 67.85C76.42 68.64 74.37 69.53 72.89 69.85C72.7 69.88 72.27 69.99 71.93 70.08C71.36 70.25 71.33 70.26 71.46 70.54C71.56 70.74 71.7 70.84 71.91 70.84C72.36 70.84 73.97 71.28 74.67 71.59C75.93 72.18 77.02 73.25 77.02 73.94C77.02 74.09 77.19 74.31 77.47 74.52C78.25 75.12 78.67 75.86 78.73 76.75C78.75 77.27 78.83 77.44 79.36 78.09C80.72 79.78 81.06 81.49 80.3 82.96C80.16 83.21 80.03 83.85 79.96 84.59C79.75 86.68 79.26 87.87 78.39 88.43C78.09 88.63 77.96 88.8 77.96 89C77.96 89.41 77.62 90.52 77.29 91.16C77.02 91.71 76.46 92.17 76.07 92.17C75.94 92.17 75.86 92.31 75.8 92.66C75.6 93.98 75.16 94.78 74.58 94.91C74.38 94.96 74.23 95.04 74.23 95.09C74.23 95.4 74.61 97.94 74.77 98.64C74.87 99.09 75.12 100.01 75.35 100.68C75.57 101.36 75.74 102 75.74 102.09C75.74 102.34 76.78 104.64 77.05 104.99C77.16 105.14 77.26 105.31 77.26 105.37C77.26 105.43 77.47 105.79 77.72 106.17C77.98 106.56 78.19 106.91 78.19 106.93C78.19 107.13 79.81 109.09 80.76 110.02C82.68 111.92 84.36 112.76 86.44 112.83C87.45 112.87 87.55 112.89 87.75 113.16C88.58 114.23 87.18 115.18 85.2 114.9C83.36 114.63 81.24 113.02 79.02 110.17C78.67 109.73 77.34 107.74 77.01 107.18C75.96 105.36 75.28 104.09 75.28 103.96C75.28 103.9 74.81 102.88 74.23 101.67C73.65 100.47 73.18 99.48 73.18 99.46C73.18 99.44 72.92 98.88 72.61 98.21C72.3 97.56 71.72 96.3 71.31 95.44C70.19 93.02 68.05 88.74 67.29 87.45C65.95 85.13 64.77 83.65 63.51 82.69C62.79 82.13 60.62 80.63 60.55 80.63C60.53 80.63 60.47 81.43 60.43 82.4C60.34 84.58 60.25 85.32 60.07 85.26C59.89 85.2 58.65 83.16 58.02 81.88L57.46 80.73L57.23 81.12C56.28 82.69 55.51 84.49 55.26 85.76C54.97 87.16 54.98 95.01 55.27 100.45C55.51 104.78 55.52 107.41 55.34 109.43C54.85 114.48 53.13 117.61 50.69 117.9C50.19 117.96 50.1 117.94 49.88 117.65C49.7 117.43 49.65 117.24 49.7 117.02C49.8 116.59 49.94 116.45 50.58 116.12C51.95 115.43 53.19 113.71 53.86 111.58C54.53 109.44 54.77 105.53 54.35 103.37C54.02 101.64 53.39 99.27 53.01 98.33C52.81 97.86 52.66 97.47 52.66 97.45C52.66 97.43 52.53 97.48 52.38 97.55C51.97 97.73 51.32 97.38 50.73 96.65C50.3 96.1 50.24 96.07 49.84 96.11C49.18 96.19 48.77 95.96 47.89 95.02C47.19 94.27 47.03 94.15 46.68 94.15C45.98 94.15 44.86 93.14 43.87 91.62C43.59 91.18 43.19 90.74 42.99 90.62C42.22 90.17 41.8 89.19 41.8 87.79C41.79 87.28 41.85 86.62 41.93 86.35C42.05 85.91 42.04 85.77 41.83 85.28C41.53 84.63 41.52 84.13 41.77 83.49C41.87 83.23 41.97 82.62 41.97 82.15C41.99 81.49 42.06 81.13 42.27 80.71C42.67 79.91 43.34 79.09 44.15 78.45C44.62 78.06 44.85 77.81 44.85 77.62C44.85 77.48 44.81 77.37 44.75 77.37C44.71 77.37 44.15 77.51 43.5 77.67C42.5 77.94 42.09 77.98 40.53 77.99C38.43 78.01 37.76 77.84 37.07 77.17C36.75 76.84 36.68 76.7 36.74 76.47C36.85 76.05 36.6 75.42 36.23 75.16C36.04 75.03 35.66 74.87 35.35 74.8C34.22 74.54 33.27 73.8 32.94 72.89C32.77 72.41 32.74 72.4 32.29 72.66C31.73 72.98 31.13 72.79 30.43 72.07C29.94 71.57 29.76 71.45 29.42 71.44C29.19 71.43 28.84 71.35 28.65 71.24C28.28 71.06 27.01 69.82 26.58 69.25C26.34 68.92 26.3 68.91 25.4 68.91L24.47 68.92L24.63 68.6C24.98 67.92 24.76 67.14 23.89 66.09C23.67 65.81 23.36 65.55 23.18 65.52C21.48 65.16 20.71 63.97 20.49 61.42C20.41 60.54 20.31 60.12 20.08 59.66C19.61 58.75 19.04 58.17 18.38 57.95C17.26 57.58 16.32 56.03 16.47 54.84L16.55 54.26L15.73 53.48C15.29 53.06 14.68 52.59 14.38 52.44C13.65 52.08 12.56 51.2 12.09 50.6C11.49 49.8 11.15 48.68 11.16 47.58C11.19 46.56 11.24 46.64 10.25 46.26C7.2 45.07 3.18 40.9 1.08 36.72C-0.14 34.32 -0.29 33.07 0.58 32.61C0.84 32.47 0.91 32.47 1.17 32.63C1.32 32.73 1.54 33.07 1.65 33.38C2.27 35.09 3.13 36.42 4.11 37.21C6.3 38.95 8.52 40 14.36 42.06C15.64 42.5 16.77 42.92 16.88 42.98C16.98 43.04 17.77 43.29 18.62 43.54C19.49 43.8 20.94 44.24 21.88 44.52C22.81 44.81 24.84 45.42 26.39 45.87C29.51 46.8 30.74 47.21 32.86 48.11C35.14 49.07 36.87 50.06 40.25 52.31C40.4 52.41 40.67 52.62 40.86 52.78C41.03 52.93 41.32 53.15 41.51 53.27C41.69 53.39 41.99 53.63 42.18 53.79C42.35 53.97 42.72 54.29 43 54.51C45.03 56.18 48.18 59.41 49.93 61.63C50.58 62.47 52.41 65.12 53.01 66.11C53.24 66.5 53.29 66.55 53.33 66.35C53.4 66.02 53.82 65.59 54.08 65.59C54.2 65.59 54.29 65.57 54.29 65.53C54.29 65.45 53.59 63.76 52.75 61.8C50.31 56.16 47.03 49.98 44.29 45.89C41.15 41.21 37.65 38.18 34.48 37.36C33.52 37.12 31.97 37.06 31.36 37.25C31.02 37.34 30.97 37.33 30.97 37.15C30.97 36.91 31.23 36.66 31.78 36.38C32.11 36.22 32.39 36.19 33.35 36.24C34.01 36.27 34.78 36.38 35.11 36.5C39.82 38.13 44.66 43.96 49.67 54.05C51.28 57.28 53.86 63.19 54.56 65.26C54.6 65.39 54.74 65.47 54.92 65.47C55.29 65.47 55.34 65.31 55.47 63.61C55.65 60.8 55.57 56.48 55.22 51.95C54.86 47.31 53.76 40.64 52.72 36.66C51.27 31.22 48.62 25.46 46.51 23.21C46.01 22.67 44.83 21.69 44.6 21.61C44.3 21.51 44.73 21.17 45.16 21.17C47.34 21.17 50.1 25.8 52.31 33.17C54.1 39.16 55.14 45 55.8 52.94C55.98 54.93 55.97 60.93 55.79 62.91C55.61 65.09 55.61 65.03 55.82 65.06C56.47 65.17 56.7 65.4 56.85 66.11C56.89 66.3 56.96 65.29 57.01 63.84C57.18 58.08 58.4 52.14 60.53 46.64C61.4 44.37 63.03 40.98 64.08 39.24C66.78 34.75 68.01 33.29 75.32 26.01C81.93 19.42 85.83 15.19 88.45 11.7C90.91 8.45 91.84 6.12 91.64 3.68C91.48 1.57 91.5 1.13 91.82 0.87C92.15 0.6 92.22 0.6 92.69 0.82ZM56.92 67.72C56.89 67.68 56.85 67.75 56.87 67.87C56.87 68 56.9 68.04 56.94 67.94C56.97 67.86 56.96 67.76 56.92 67.72ZM54.48 68.54C54.44 68.49 54.41 68.56 54.42 68.69C54.42 68.82 54.45 68.85 54.49 68.76C54.52 68.68 54.51 68.57 54.48 68.54Z" />
		</g>
	</g>
</svg>